<mxfile host="app.diagrams.net" modified="2023-01-25T04:58:27.096Z" agent="5.0 (Windows NT 10.0; Win64; x64) AppleWebKit/537.36 (KHTML, like Gecko) Chrome/109.0.0.0 Safari/537.36" etag="K4qcc38gh17TY2Y3Af9b" version="20.6.2" type="github">
  <diagram id="C5RBs43oDa-KdzZeNtuy" name="Page-1">
    <mxGraphModel dx="1550" dy="827" grid="1" gridSize="10" guides="1" tooltips="1" connect="1" arrows="1" fold="1" page="1" pageScale="1" pageWidth="827" pageHeight="1169" math="0" shadow="0">
      <root>
        <mxCell id="WIyWlLk6GJQsqaUBKTNV-0" />
        <mxCell id="WIyWlLk6GJQsqaUBKTNV-1" parent="WIyWlLk6GJQsqaUBKTNV-0" />
        <mxCell id="ZErEPFeDTCjkzsjacJw4-6" style="edgeStyle=orthogonalEdgeStyle;rounded=0;orthogonalLoop=1;jettySize=auto;html=1;exitX=1;exitY=0.5;exitDx=0;exitDy=0;entryX=0;entryY=0.5;entryDx=0;entryDy=0;fontSize=16;" edge="1" parent="WIyWlLk6GJQsqaUBKTNV-1" source="ZErEPFeDTCjkzsjacJw4-0" target="ZErEPFeDTCjkzsjacJw4-4">
          <mxGeometry relative="1" as="geometry">
            <Array as="points">
              <mxPoint x="240" y="240" />
              <mxPoint x="300" y="240" />
              <mxPoint x="300" y="180" />
            </Array>
          </mxGeometry>
        </mxCell>
        <mxCell id="ZErEPFeDTCjkzsjacJw4-10" style="edgeStyle=orthogonalEdgeStyle;rounded=0;orthogonalLoop=1;jettySize=auto;html=1;exitX=1;exitY=0.75;exitDx=0;exitDy=0;entryX=0;entryY=0.5;entryDx=0;entryDy=0;fontSize=16;" edge="1" parent="WIyWlLk6GJQsqaUBKTNV-1" source="ZErEPFeDTCjkzsjacJw4-0" target="ZErEPFeDTCjkzsjacJw4-5">
          <mxGeometry relative="1" as="geometry">
            <Array as="points">
              <mxPoint x="240" y="280" />
              <mxPoint x="300" y="280" />
              <mxPoint x="300" y="340" />
            </Array>
          </mxGeometry>
        </mxCell>
        <mxCell id="ZErEPFeDTCjkzsjacJw4-0" value="&lt;font style=&quot;font-size: 16px;&quot;&gt;stock-event-exchange&lt;br&gt;(topicExchange)&lt;/font&gt;" style="rounded=0;whiteSpace=wrap;html=1;" vertex="1" parent="WIyWlLk6GJQsqaUBKTNV-1">
          <mxGeometry x="80" y="195" width="160" height="120" as="geometry" />
        </mxCell>
        <mxCell id="ZErEPFeDTCjkzsjacJw4-4" value="stock.release.stock.queue&lt;br&gt;(死信队列)" style="rounded=1;whiteSpace=wrap;html=1;fontSize=16;" vertex="1" parent="WIyWlLk6GJQsqaUBKTNV-1">
          <mxGeometry x="490" y="145" width="200" height="70" as="geometry" />
        </mxCell>
        <mxCell id="ZErEPFeDTCjkzsjacJw4-5" value="stock.delay.queue&lt;br&gt;(延时队列)&lt;br&gt;过期后携带stock.release&lt;br&gt;发向stock-event-exchange" style="rounded=1;whiteSpace=wrap;html=1;fontSize=16;" vertex="1" parent="WIyWlLk6GJQsqaUBKTNV-1">
          <mxGeometry x="490" y="300" width="200" height="80" as="geometry" />
        </mxCell>
        <mxCell id="ZErEPFeDTCjkzsjacJw4-7" value="stock.release.#" style="text;html=1;align=center;verticalAlign=middle;resizable=0;points=[];autosize=1;strokeColor=none;fillColor=none;fontSize=16;" vertex="1" parent="WIyWlLk6GJQsqaUBKTNV-1">
          <mxGeometry x="315" y="145" width="130" height="30" as="geometry" />
        </mxCell>
        <mxCell id="ZErEPFeDTCjkzsjacJw4-11" value="stock.locked" style="text;html=1;align=center;verticalAlign=middle;resizable=0;points=[];autosize=1;strokeColor=none;fillColor=none;fontSize=16;" vertex="1" parent="WIyWlLk6GJQsqaUBKTNV-1">
          <mxGeometry x="325" y="340" width="110" height="30" as="geometry" />
        </mxCell>
        <mxCell id="ZErEPFeDTCjkzsjacJw4-13" value="order.delay-queue&lt;br&gt;(延时队列)&lt;br&gt;过期后携带order.release.order&lt;br&gt;发向order-event-exchange" style="rounded=1;whiteSpace=wrap;html=1;fontSize=16;" vertex="1" parent="WIyWlLk6GJQsqaUBKTNV-1">
          <mxGeometry x="490" y="450" width="200" height="100" as="geometry" />
        </mxCell>
        <mxCell id="ZErEPFeDTCjkzsjacJw4-14" style="edgeStyle=orthogonalEdgeStyle;rounded=0;orthogonalLoop=1;jettySize=auto;html=1;exitX=0.5;exitY=1;exitDx=0;exitDy=0;fontSize=16;" edge="1" parent="WIyWlLk6GJQsqaUBKTNV-1" source="ZErEPFeDTCjkzsjacJw4-13" target="ZErEPFeDTCjkzsjacJw4-13">
          <mxGeometry relative="1" as="geometry" />
        </mxCell>
        <mxCell id="ZErEPFeDTCjkzsjacJw4-17" style="edgeStyle=orthogonalEdgeStyle;rounded=0;orthogonalLoop=1;jettySize=auto;html=1;exitX=1;exitY=0.5;exitDx=0;exitDy=0;entryX=0;entryY=0.5;entryDx=0;entryDy=0;fontSize=16;" edge="1" parent="WIyWlLk6GJQsqaUBKTNV-1" source="ZErEPFeDTCjkzsjacJw4-15" target="ZErEPFeDTCjkzsjacJw4-13">
          <mxGeometry relative="1" as="geometry">
            <Array as="points">
              <mxPoint x="300" y="560" />
              <mxPoint x="300" y="500" />
            </Array>
          </mxGeometry>
        </mxCell>
        <mxCell id="ZErEPFeDTCjkzsjacJw4-19" style="edgeStyle=orthogonalEdgeStyle;rounded=0;orthogonalLoop=1;jettySize=auto;html=1;exitX=1;exitY=0.75;exitDx=0;exitDy=0;entryX=0;entryY=0.5;entryDx=0;entryDy=0;fontSize=16;" edge="1" parent="WIyWlLk6GJQsqaUBKTNV-1" source="ZErEPFeDTCjkzsjacJw4-15" target="ZErEPFeDTCjkzsjacJw4-16">
          <mxGeometry relative="1" as="geometry">
            <Array as="points">
              <mxPoint x="300" y="590" />
              <mxPoint x="300" y="660" />
            </Array>
          </mxGeometry>
        </mxCell>
        <mxCell id="ZErEPFeDTCjkzsjacJw4-15" value="order-event-exchange&lt;br&gt;(topicExchange)" style="rounded=0;whiteSpace=wrap;html=1;fontSize=16;" vertex="1" parent="WIyWlLk6GJQsqaUBKTNV-1">
          <mxGeometry x="80" y="500" width="160" height="120" as="geometry" />
        </mxCell>
        <mxCell id="ZErEPFeDTCjkzsjacJw4-16" value="order.release.order.queue&lt;br&gt;(死信队列)" style="rounded=1;whiteSpace=wrap;html=1;fontSize=16;" vertex="1" parent="WIyWlLk6GJQsqaUBKTNV-1">
          <mxGeometry x="490" y="630" width="200" height="60" as="geometry" />
        </mxCell>
        <mxCell id="ZErEPFeDTCjkzsjacJw4-18" value="order.create.order" style="text;html=1;align=center;verticalAlign=middle;resizable=0;points=[];autosize=1;strokeColor=none;fillColor=none;fontSize=16;" vertex="1" parent="WIyWlLk6GJQsqaUBKTNV-1">
          <mxGeometry x="330" y="470" width="150" height="30" as="geometry" />
        </mxCell>
        <mxCell id="ZErEPFeDTCjkzsjacJw4-21" value="order.release.order" style="text;html=1;align=center;verticalAlign=middle;resizable=0;points=[];autosize=1;strokeColor=none;fillColor=none;fontSize=16;" vertex="1" parent="WIyWlLk6GJQsqaUBKTNV-1">
          <mxGeometry x="310" y="665" width="160" height="30" as="geometry" />
        </mxCell>
        <mxCell id="ZErEPFeDTCjkzsjacJw4-22" value="order.release.other.#" style="text;html=1;align=center;verticalAlign=middle;resizable=0;points=[];autosize=1;strokeColor=none;fillColor=none;fontSize=16;" vertex="1" parent="WIyWlLk6GJQsqaUBKTNV-1">
          <mxGeometry x="315" y="185" width="170" height="30" as="geometry" />
        </mxCell>
      </root>
    </mxGraphModel>
  </diagram>
</mxfile>
